# xmcd
#
# Track frame offsets:
#	150
#	16659
#	31368
#	48660
#	66141
#	82167
#	94348
#	108708
#	123948
#	135492
#	149906
#	163638
#	179681
#	198704
#	210629
#	229994
#	246672
#	260129
#	272214
#	288160
#
# Disc length: 4153 seconds
#
# Revision: 1
# Processed by: cddbd v1.5.1PL0 Copyright (c) Steve Scherf et al.
# Submitted via: audiograbber 1.83.01
#
DISCID=45103714
DTITLE=www.rnrtogo.com - Country 01
DYEAR=2005
DGENRE=
TTITLE0=Alabama - If Your Gonna Play In Texas
TTITLE1=Nitty Gritty Dirt Band - Fishin In The Dark
TTITLE2=Alabama - Mountian Music
TTITLE3=Alan Jackson - Chattahoochee
TTITLE4=Charlie Danials Band - Devil Went Down To Georga
TTITLE5=Conway Twitty - Rocky Top
TTITLE6=Brooks and Dunn - Boot Scootin Boogie
TTITLE7=Neal McCoy - The Shake
TTITLE8=Garth Books - Callin Baton Rouge
TTITLE9=Marry Chapin Carpenter - Down At the Twist and Shout
TTITLE10=Faith Hill - The Kiss
TTITLE11=Shania Twain - This Kiss
TTITLE12=Garth Brooks - Friends In Low Places
TTITLE13=Johnny Cash - Ring Of Fire
TTITLE14=Shania Twain - That Don't Impress Me Much
TTITLE15=The Tractors - Baby Likes To Rock It
TTITLE16=Tracy Bird - Watermelon Crawl
TTITLE17=Tim Mcgraw - Down On The Farm
TTITLE18=Shania Twain - Honey, I'm Home
TTITLE19=David Allan Coe - You Never Called Me By Name
EXTD=
EXTT0=
EXTT1=
EXTT2=
EXTT3=
EXTT4=
EXTT5=
EXTT6=
EXTT7=
EXTT8=
EXTT9=
EXTT10=
EXTT11=
EXTT12=
EXTT13=
EXTT14=
EXTT15=
EXTT16=
EXTT17=
EXTT18=
EXTT19=
PLAYORDER=
